<svg xmlns="http://www.w3.org/2000/svg" xml:space="preserve" width="800" height="800" viewBox="0 0 16 16"><path fill="none" d="M0 0h16v16H0z"/><path fill="#231f20" d="M320 463.68V352h96c35.346 0 64-28.654 64-64 0-35.346-28.654-64-64-64h-96v-80.32c0-35.346-28.654-64-64-64-35.346 0-64 28.654-64 64V224H96c-35.346 0-64 28.654-64 64 0 35.346 28.654 64 64 64h96v111.68c0 35.346 28.654 64 64 64 35.346 0 64-28.654 64-64z" style="overflow:hidden;fill:currentColor" transform="matrix(.02953 0 0 .02953 .44 -.968)"/></svg>